<?xml version="1.0" encoding="utf-8"?>
<!-- Generator: Adobe Illustrator 16.0.4, SVG Export Plug-In . SVG Version: 6.00 Build 0)  -->
<!DOCTYPE svg PUBLIC "-//W3C//DTD SVG 1.1//EN" "http://www.w3.org/Graphics/SVG/1.1/DTD/svg11.dtd">
<svg version="1.1" id="レイヤー_1" xmlns="http://www.w3.org/2000/svg" xmlns:xlink="http://www.w3.org/1999/xlink" x="0px"
	 y="0px" width="40px" height="35px" viewBox="0 0 40 35" enable-background="new 0 0 40 35" xml:space="preserve">
<rect fill="none" width="40" height="35"/>
<path fill="#1A1A1A" d="M20.364,32.865L5.661,18.602c-3.875-3.758-3.875-9.875,0-13.633c1.877-1.821,4.373-2.824,7.027-2.824l0,0
	c2.655,0,5.15,1.003,7.027,2.824c0.228,0.22,0.443,0.453,0.648,0.696c0.204-0.244,0.421-0.477,0.647-0.696
	c1.877-1.821,4.373-2.824,7.028-2.824c0,0-0.001,0,0,0c2.654,0,5.15,1.003,7.027,2.824c3.874,3.759,3.874,9.875,0.001,13.633
	L20.364,32.865z M12.688,4.358c-2.045,0-3.967,0.773-5.413,2.175c-2.985,2.896-2.985,7.607,0,10.503l13.089,12.698l13.089-12.698
	c2.984-2.896,2.984-7.607,0-10.503c-1.445-1.402-3.368-2.175-5.413-2.175s-3.968,0.773-5.414,2.175
	c-0.487,0.473-0.912,1.024-1.263,1.64l-1,1.753l-0.998-1.754c-0.349-0.613-0.773-1.164-1.264-1.638
	C16.655,5.131,14.733,4.358,12.688,4.358z"/>
</svg>
