<?xml version="1.0" encoding="utf-8"?>
<!-- Generator: Adobe Illustrator 16.0.4, SVG Export Plug-In . SVG Version: 6.00 Build 0)  -->
<!DOCTYPE svg PUBLIC "-//W3C//DTD SVG 1.1//EN" "http://www.w3.org/Graphics/SVG/1.1/DTD/svg11.dtd">
<svg version="1.1" id="レイヤー_1" xmlns="http://www.w3.org/2000/svg" xmlns:xlink="http://www.w3.org/1999/xlink" x="0px"
	 y="0px" width="100px" height="100px" viewBox="0 0 100 100" enable-background="new 0 0 100 100" xml:space="preserve">
<path fill="#FFFFFF" d="M99.645,25.354c-0.271-5.947-1.262-9.177-2.094-11.324c-1.115-2.848-2.434-4.879-4.562-7.013
	c-2.143-2.135-4.168-3.454-7.016-4.563c-2.148-0.833-5.377-1.826-11.322-2.099C68.219,0.062,66.287,0,50,0
	C33.717,0,31.783,0.062,25.354,0.355c-5.947,0.273-9.176,1.266-11.324,2.099C11.184,3.564,9.15,4.883,7.016,7.02
	c-2.133,2.132-3.453,4.164-4.562,7.011c-0.834,2.146-1.824,5.376-2.096,11.324C0.061,31.784,0,33.715,0,49.999
	c0,16.28,0.061,18.21,0.357,24.639c0.271,5.946,1.262,9.176,2.096,11.327c1.109,2.85,2.43,4.877,4.566,7.012
	c2.131,2.133,4.164,3.455,7.01,4.562c2.148,0.838,5.377,1.832,11.324,2.102c6.18,0.283,8.242,0.354,22.844,0.359V61.493H35.908
	v-15.75h12.289v-6.601c0-13.487,8.688-21.575,20.719-21.575c5.762,0,9.27,0.427,10.709,0.619v14.092l-7.348,0.003
	c-6.541,0-7.811,3.109-7.811,7.672v5.79h14.607l-2.029,15.75H64.467v38.458c4.277-0.049,6.496-0.141,10.184-0.311
	c5.945-0.27,9.174-1.264,11.322-2.102c2.848-1.107,4.873-2.43,7.016-4.562c2.129-2.135,3.447-4.162,4.562-7.012
	c0.832-2.151,1.822-5.381,2.094-11.327C99.938,68.209,100,66.279,100,49.999C100,33.715,99.938,31.784,99.645,25.354z"/>
</svg>
