<?xml version="1.0" encoding="utf-8"?>
<!-- Generator: Adobe Illustrator 16.0.4, SVG Export Plug-In . SVG Version: 6.00 Build 0)  -->
<!DOCTYPE svg PUBLIC "-//W3C//DTD SVG 1.1//EN" "http://www.w3.org/Graphics/SVG/1.1/DTD/svg11.dtd">
<svg version="1.1" id="レイヤー_1" xmlns="http://www.w3.org/2000/svg" xmlns:xlink="http://www.w3.org/1999/xlink" x="0px"
	 y="0px" width="80px" height="80px" viewBox="0 0 80 80" enable-background="new 0 0 80 80" xml:space="preserve">
<circle fill="none" cx="40" cy="40" r="40"/>
<path fill="#FFFFFF" d="M41.718,50.904c0-6.487,5.26-11.748,11.75-11.748c2.908,0,5.563,1.062,7.615,2.811
	c2.982-4.738,2.421-11.069-1.704-15.198c-4.792-4.79-12.561-4.79-17.35,0c-0.823,0.825-1.491,1.742-2.031,2.714
	c-0.533-0.972-1.204-1.889-2.027-2.714c-4.79-4.79-12.558-4.79-17.347,0c-4.792,4.792-4.792,12.558,0,17.348l19.374,19.381
	l4.743-4.743C42.867,56.673,41.718,53.926,41.718,50.904z"/>
<polygon fill="#FFFFFF" points="59.867,49.277 55.096,49.277 55.096,44.505 51.841,44.505 51.841,49.277 47.066,49.277 
	47.066,52.533 51.841,52.533 51.841,57.307 55.096,57.307 55.096,52.533 59.867,52.533 "/>
</svg>
