<?xml version="1.0" encoding="utf-8"?>
<!-- Generator: Adobe Illustrator 16.0.0, SVG Export Plug-In . SVG Version: 6.00 Build 0)  -->
<!DOCTYPE svg PUBLIC "-//W3C//DTD SVG 1.1//EN" "http://www.w3.org/Graphics/SVG/1.1/DTD/svg11.dtd">
<svg version="1.1" id="レイヤー_1" xmlns="http://www.w3.org/2000/svg" xmlns:xlink="http://www.w3.org/1999/xlink" x="0px"
	 y="0px" width="80px" height="80px" viewBox="0 0 80 80" enable-background="new 0 0 80 80" xml:space="preserve">
<g>
	<path fill="#1A1A1A" d="M40,79.25C18.357,79.25,0.75,61.643,0.75,40C0.75,18.357,18.357,0.75,40,0.75
		c21.643,0,39.25,17.607,39.25,39.25C79.25,61.643,61.643,79.25,40,79.25z"/>
	<path fill="#FFFFFF" d="M40,1.5c21.229,0,38.5,17.271,38.5,38.5c0,21.229-17.271,38.5-38.5,38.5C18.771,78.5,1.5,61.229,1.5,40
		C1.5,18.771,18.771,1.5,40,1.5 M40,0C17.908,0,0,17.908,0,40s17.908,40,40,40c22.09,0,40-17.908,40-40S62.09,0,40,0L40,0z"/>
</g>
<path fill="#FFFFFF" d="M57.036,54.566c-0.593,0-1.187-0.209-1.662-0.633L40,40.238L24.626,53.934
	c-1.031,0.918-2.611,0.827-3.53-0.203c-0.918-1.031-0.827-2.611,0.204-3.53l17.037-15.176c0.949-0.844,2.377-0.844,3.326,0
	L58.7,50.199c1.03,0.919,1.122,2.499,0.204,3.529C58.41,54.284,57.725,54.566,57.036,54.566z"/>
<path fill="#FFFFFF" d="M58.139,28.402H21.861c-0.553,0-1-0.447-1-1c0-0.553,0.447-1,1-1h36.278c0.553,0,1,0.447,1,1
	C59.139,27.955,58.691,28.402,58.139,28.402z"/>
</svg>
