<?xml version="1.0" encoding="utf-8"?>
<!-- Generator: Adobe Illustrator 16.0.0, SVG Export Plug-In . SVG Version: 6.00 Build 0)  -->
<!DOCTYPE svg PUBLIC "-//W3C//DTD SVG 1.1//EN" "http://www.w3.org/Graphics/SVG/1.1/DTD/svg11.dtd">
<svg version="1.1" id="レイヤー_1" xmlns="http://www.w3.org/2000/svg" xmlns:xlink="http://www.w3.org/1999/xlink" x="0px"
	 y="0px" width="70px" height="210px" viewBox="0 0 70 210" enable-background="new 0 0 70 210" xml:space="preserve">
<rect fill="none" width="70" height="70"/>
<rect y="70" fill="none" width="70" height="70"/>
<rect y="140" fill="none" width="70" height="70"/>
<path id="f_2_" fill="#FFFFFF" d="M39,53.934v-18.39h5.514l0.887-6.903H39v-2.9c0-1.998,0.555-3.36,3.424-3.36l3.219-0.001v-6.175
	c-0.631-0.085-2.369-0.271-4.893-0.271c-5.272,0-8.877,3.217-8.877,9.122v3.585h-5.554v6.903h5.554v18.39H39z"/>
<g id="Logo__x2014__FIXED_1_">
	<g>
		<path fill="#FFFFFF" d="M29.005,121.578c14.339,0,22.192-11.891,22.192-22.187c0-0.337,0-0.668-0.025-1.004
			c1.529-1.097,2.85-2.479,3.895-4.049c-1.399,0.626-2.897,1.035-4.487,1.236c1.619-0.96,2.848-2.495,3.442-4.32
			c-1.502,0.897-3.182,1.537-4.957,1.885c-1.434-1.52-3.457-2.461-5.688-2.461c-4.303,0-7.805,3.496-7.805,7.797
			c0,0.611,0.078,1.203,0.201,1.785c-6.479-0.32-12.227-3.439-16.079-8.157c-0.666,1.158-1.048,2.496-1.048,3.927
			c0,2.708,1.386,5.094,3.47,6.496c-1.279-0.047-2.479-0.4-3.527-0.976c0,0.028,0,0.062,0,0.105c0,3.772,2.689,6.935,6.252,7.649
			c-0.657,0.182-1.341,0.271-2.057,0.271c-0.502,0-0.99-0.04-1.461-0.135c0.986,3.104,3.88,5.354,7.286,5.41
			c-2.677,2.103-6.038,3.344-9.688,3.344c-0.624,0-1.245-0.028-1.856-0.1C20.507,120.284,24.608,121.578,29.005,121.578"/>
	</g>
</g>
<path fill="#FFFFFF" d="M54.688,172.975C54.688,164.167,45.855,157,35,157c-10.855,0-19.685,7.167-19.685,15.975
	c0,7.896,7.004,14.517,16.462,15.768c0.641,0.137,1.516,0.423,1.736,0.967c0.197,0.5,0.129,1.281,0.062,1.784
	c0,0-0.23,1.387-0.281,1.683c-0.084,0.501-0.395,1.949,1.705,1.062c2.104-0.885,11.34-6.676,15.467-11.434h-0.002
	C53.318,179.68,54.688,176.505,54.688,172.975z M26.895,178.466H22.79c-0.596,0-1.084-0.483-1.084-1.086v-8.214
	c0-0.598,0.488-1.083,1.084-1.083c0.598,0,1.086,0.485,1.086,1.083v7.132h3.02c0.604,0,1.086,0.485,1.086,1.082
	C27.98,177.982,27.498,178.466,26.895,178.466z M31.144,177.38c0,0.603-0.486,1.086-1.082,1.086c-0.598,0-1.082-0.483-1.082-1.086
	v-8.214c0-0.598,0.484-1.083,1.082-1.083c0.596,0,1.082,0.485,1.082,1.083V177.38z M41.033,177.38c0,0.468-0.299,0.879-0.742,1.028
	c-0.111,0.037-0.225,0.058-0.344,0.058c-0.338,0-0.666-0.163-0.867-0.438l-4.209-5.729v5.082c0,0.603-0.488,1.086-1.082,1.086
	c-0.6,0-1.088-0.483-1.088-1.086v-8.214c0-0.466,0.301-0.882,0.742-1.025c0.113-0.037,0.229-0.058,0.346-0.058
	c0.336,0,0.662,0.16,0.865,0.435l4.206,5.729v-5.079c0-0.597,0.488-1.083,1.091-1.083c0.594,0,1.084,0.486,1.084,1.083
	L41.033,177.38L41.033,177.38z M47.676,172.188c0.596,0,1.086,0.487,1.086,1.086s-0.49,1.084-1.086,1.084h-3.021v1.939h3.021
	c0.596,0,1.086,0.485,1.086,1.082c0,0.604-0.49,1.086-1.086,1.086H43.57c-0.6,0-1.08-0.482-1.08-1.086v-4.105l0,0c0,0,0,0,0-0.002
	v-4.104c0-0.001,0-0.001,0-0.001c0-0.598,0.48-1.083,1.08-1.083h4.104c0.597,0,1.087,0.485,1.087,1.083
	c0,0.6-0.49,1.085-1.087,1.085h-3.021v1.938h3.021V172.188z"/>
</svg>
